<?xml version="1.0"?>
<svg width="16" height="16" xmlns="http://www.w3.org/2000/svg" xmlns:svg="http://www.w3.org/2000/svg" xmlns:xlink="http://www.w3.org/1999/xlink" version="1.1" xml:space="preserve">
 <!-- Created with SVG-edit - https://github.com/SVG-Edit/svgedit-->
 <defs>
  <symbol height="64px" id="svg_8" version="1.1" viewBox="-25.6 -25.6 563.20 563.20" width="64px" xml:space="preserve" xmlns="http://www.w3.org/2000/svg" xmlns:xlink="http://www.w3.org/1999/xlink">
   <g id="svg_7" stroke-width="0"/>
   <g id="svg_6" stroke-linecap="round" stroke-linejoin="round"/>
   <g id="svg_5">
    <style type="text/css">.st0{fill:#ffffff;}</style>
    <g>
     <polygon class="st0" points="256.008,275.876 173.562,193.446 132.928,234.081 256.008,357.161 379.072,234.081 338.438,193.446 "/>
     <path class="st0" d="m256.01,0c-141.4,0.01 -256,114.61 -256.01,255.99c0.01,141.4 114.61,255.99 256.01,256.01c141.38,-0.02 255.97,-114.61 255.99,-256.01c-0.02,-141.38 -114.61,-255.98 -255.99,-255.99zm152.57,408.58c-39.11,39.09 -92.93,63.2 -152.57,63.21c-59.66,-0.01 -113.49,-24.12 -152.6,-63.21c-39.08,-39.11 -63.19,-92.93 -63.2,-152.59c0.01,-59.65 24.12,-113.47 63.2,-152.58c39.11,-39.08 92.94,-63.19 152.6,-63.2c59.64,0.01 113.46,24.12 152.57,63.2c39.09,39.11 63.2,92.93 63.21,152.58c-0.01,59.66 -24.13,113.48 -63.21,152.59z"/>
    </g>
   </g>
  </symbol>
 </defs>
 <g class="layer">
  <title>Layer 1</title>
  <use id="svg_9" transform="matrix(0.259842, 0, 0, 0.259842, -0.303962, -0.303962)" x="0" xlink:href="#svg_8" y="0"/>
 </g>
</svg>