<?xml version="1.0"?>
<svg width="16" height="16" xmlns="http://www.w3.org/2000/svg" xmlns:svg="http://www.w3.org/2000/svg" xmlns:xlink="http://www.w3.org/1999/xlink" version="1.1" xml:space="preserve">
 <!-- Created with SVG-edit - https://github.com/SVG-Edit/svgedit-->
 <defs>
  <symbol height="64px" id="svg_17" version="1.1" viewBox="0 0 512 512" width="64px" xml:space="preserve" xmlns="http://www.w3.org/2000/svg" xmlns:xlink="http://www.w3.org/1999/xlink">
   <g id="svg_16" stroke-width="0"/>
   <g id="svg_15" stroke-linecap="round" stroke-linejoin="round"/>
   <g id="svg_14">
    <style type="text/css">.st0{fill:#ffffff;}</style>
    <g>
     <path class="st0" d="m426.64,282.82l85.36,-49.03l-10.37,-20.04l-77.83,44.69l-61.9,-9.51c0.14,-5.48 -0.14,-10.92 -0.79,-16.26c13.58,-0.94 26.33,-6.21 36.08,-15.96c11.95,-11.95 17.16,-28.39 15.94,-45.34c36.88,-11.46 37.92,-37.63 37.89,-50.73c-0.05,-14.25 -13.27,-9.38 -14.68,-5.59c-8.34,21.07 -23.81,23.91 -36.11,19.71c-2.96,-4.43 -6.4,-8.67 -10.36,-12.63c-3.96,-3.95 -8.21,-7.4 -12.64,-10.37c-4.19,-12.29 -1.36,-27.76 19.73,-36.11c3.77,-1.4 8.65,-14.62 -5.61,-14.66c-13.1,-0.03 -39.26,1.01 -50.72,37.87c-16.95,-1.2 -33.4,4 -45.35,15.94c-9.75,9.76 -15,22.51 -15.97,36.1c-5.33,-0.67 -10.76,-0.94 -16.24,-0.81l-9.51,-61.88l44.69,-77.85l-20.04,-10.36l-49.02,85.37l10.4,67.74c-10.68,2.45 -21.27,6.4 -31.45,11.8l-36.85,-28.83l-95.42,-23.57l-7.31,22.72l90.97,22.47l27.23,21.32c-4.02,3.21 -7.95,6.67 -11.69,10.42c-5.24,5.24 -9.95,10.81 -14.15,16.57l-72.14,-4.04l-88.78,47.73l9.74,20.4l82.59,-44.41l55.08,3.08c-19.52,41.94 -14.9,89.69 15.62,120.21c30.52,30.51 78.26,35.13 120.2,15.61l3.08,55.08l-44.41,82.6l20.4,9.73l47.73,-88.78l-4.03,-72.13c5.76,-4.21 11.31,-8.91 16.56,-14.15c3.75,-3.76 7.2,-7.68 10.43,-11.7l21.3,27.22l22.48,90.98l22.71,-7.3l-23.56,-95.44l-28.83,-36.84c5.4,-10.18 9.34,-20.78 11.8,-31.45l67.75,10.41z"/>
    </g>
   </g>
  </symbol>
 </defs>
 <g class="layer">
  <title>Layer 1</title>
  <use id="svg_18" transform="matrix(0.243887, 0, 0, 0.243887, 0.0289575, 0.0289575)" x="0.77" xlink:href="#svg_17" y="0.51"/>
 </g>
</svg>