<?xml version="1.0"?>
<svg width="16" height="16" xmlns="http://www.w3.org/2000/svg" xmlns:svg="http://www.w3.org/2000/svg" xmlns:xlink="http://www.w3.org/1999/xlink" version="1.1" xml:space="preserve">
 <!-- Created with SVG-edit - https://github.com/SVG-Edit/svgedit-->
 <defs>
  <symbol height="64px" id="svg_11" version="1.1" viewBox="-25.6 -25.6 563.20 563.20" width="64px" xml:space="preserve" xmlns="http://www.w3.org/2000/svg" xmlns:xlink="http://www.w3.org/1999/xlink">
   <g id="svg_10" stroke-width="0"/>
   <g id="svg_9" stroke-linecap="round" stroke-linejoin="round"/>
   <g id="svg_8">
    <style type="text/css">.st0{fill:#ffffff;}</style>
    <g>
     <path class="st0" d="m502.32,307.3l-39,-30.8c-6.22,-4.91 -9.67,-12.43 -9.67,-20.35c0,-0.08 0,-0.17 0,-0.25c-0.01,-7.94 3.44,-15.48 9.67,-20.4l39,-30.8c8.94,-7.06 12.1,-19.19 7.74,-29.71l-17.13,-41.36c-4.36,-10.52 -15.17,-16.86 -26.47,-15.53l-49.37,5.8c-7.88,0.92 -15.66,-1.97 -21.26,-7.59c-0.06,-0.06 -0.12,-0.12 -0.18,-0.18c-5.59,-5.6 -8.47,-13.36 -7.55,-21.22l5.8,-49.37c1.33,-11.3 -5.01,-22.11 -15.53,-26.47l-41.37,-17.13c-10.51,-4.36 -22.64,-1.2 -29.7,7.74l-30.8,39c-4.91,6.22 -12.43,9.67 -20.35,9.67c-0.09,0 -0.17,0 -0.25,0c-7.94,0.01 -15.48,-3.44 -20.4,-9.67l-30.8,-39c-7.06,-8.94 -19.19,-12.1 -29.7,-7.74l-41.37,17.13c-10.52,4.36 -16.86,15.17 -15.53,26.48l5.8,49.36c0.92,7.88 -1.97,15.66 -7.59,21.26c-0.06,0.06 -0.12,0.12 -0.18,0.18c-5.6,5.59 -13.36,8.47 -21.22,7.55l-49.36,-5.8c-11.31,-1.33 -22.12,5.01 -26.48,15.53l-17.13,41.37c-4.36,10.51 -1.2,22.64 7.74,29.7l39,30.8c6.22,4.91 9.67,12.43 9.67,20.35c0,0.08 0,0.17 0,0.25c0.01,7.94 -3.44,15.48 -9.67,20.4l-39,30.8c-8.94,7.06 -12.1,19.19 -7.74,29.7l17.13,41.37c4.36,10.52 15.17,16.86 26.48,15.53l49.36,-5.8c7.88,-0.92 15.66,1.97 21.26,7.59c0.06,0.06 0.12,0.12 0.18,0.18c5.59,5.6 8.47,13.36 7.55,21.22l-5.8,49.37c-1.33,11.3 5.01,22.11 15.53,26.47l41.37,17.13c10.51,4.36 22.64,1.2 29.7,-7.73l30.8,-39.01c4.91,-6.21 12.43,-9.66 20.35,-9.67c0.09,0 0.17,0 0.25,0c7.94,-0.01 15.48,3.44 20.4,9.67l30.8,39.01c7.06,8.93 19.19,12.09 29.7,7.73l41.37,-17.13c10.52,-4.36 16.86,-15.17 15.53,-26.47l-5.8,-49.37c-0.92,-7.88 1.97,-15.66 7.59,-21.26c0.06,-0.06 0.12,-0.12 0.18,-0.17c5.6,-5.6 13.36,-8.48 21.22,-7.56l49.37,5.8c11.3,1.33 22.11,-5.01 26.47,-15.53l17.13,-41.36c4.36,-10.52 1.2,-22.65 -7.74,-29.71zm-221.03,22.4c-39.68,16.43 -85.17,-2.41 -101.61,-42.09c-16.43,-39.68 2.41,-85.17 42.09,-101.61c39.68,-16.43 85.17,2.41 101.61,42.09c16.43,39.68 -2.41,85.17 -42.09,101.61z"/>
    </g>
   </g>
  </symbol>
 </defs>
 <g class="layer">
  <title>Layer 1</title>
  <use id="svg_12" transform="matrix(0.263366, 0, 0, 0.263366, -0.279239, -0.279239)" x="-0.71" xlink:href="#svg_11" y="-0.47"/>
 </g>
</svg>